<?xml version="1.0" encoding="utf-8"?>
<!-- Generator: Adobe Illustrator 26.0.1, SVG Export Plug-In . SVG Version: 6.00 Build 0)  -->
<svg version="1.1" xmlns="http://www.w3.org/2000/svg" xmlns:xlink="http://www.w3.org/1999/xlink" x="0px" y="0px"
	 viewBox="0 0 1366 615" style="enable-background:new 0 0 1366 615;" xml:space="preserve">
<style type="text/css">
	.st0{display:none;fill:#5291BF;}
	.st1{clip-path:url(#SVGID_00000011031000457036334870000008395559133853783937_);fill:#6B717F;}
	.st2{clip-path:url(#SVGID_00000011031000457036334870000008395559133853783937_);fill:#5A5E6B;}
	.st3{clip-path:url(#SVGID_00000011031000457036334870000008395559133853783937_);fill:#6A6F7F;}
	.st4{clip-path:url(#SVGID_00000011031000457036334870000008395559133853783937_);fill:#9099AF;}
	.st5{clip-path:url(#SVGID_00000011031000457036334870000008395559133853783937_);fill:#AAB7CE;}
</style>
<g id="Layer_1">
	<rect x="1" class="st0" width="1365" height="615"/>
</g>
<g id="Layer_2">
	<g>
		<defs>
			<rect id="SVGID_1_" x="1" width="1365" height="615"/>
		</defs>
		<clipPath id="SVGID_00000023997998115541272270000017353444381319426748_">
			<use xlink:href="#SVGID_1_"  style="overflow:visible;"/>
		</clipPath>
		<path style="clip-path:url(#SVGID_00000023997998115541272270000017353444381319426748_);fill:#6B717F;" d="M328.92,486.98"/>
		<polygon style="clip-path:url(#SVGID_00000023997998115541272270000017353444381319426748_);fill:#5A5E6B;" points="-258.37,635 
			1761,635 1085.07,497.58 678.22,348.55 527.97,105.16 505.33,80.55 482.61,62.78 471.02,85.34 448.38,45 433.75,45 420.94,75.76 
			393.04,45 361.93,53.2 346.15,82.6 316.65,72.56 277.54,93.54 264.51,70.98 186.29,150.28 95.02,214.55 -5.81,364.95 -189.68,501 
					"/>
		<polygon style="clip-path:url(#SVGID_00000023997998115541272270000017353444381319426748_);fill:#6A6F7F;" points="-16.75,635 
			1768.14,635 1170.7,513.11 811.09,380.91 678.28,165.02 658.27,143.19 638.19,127.42 627.95,147.43 607.94,111.65 595.01,111.65 
			583.68,138.94 559.02,111.65 531.53,118.93 517.58,145.01 491.5,136.1 456.94,154.71 445.41,134.7 376.28,205.04 295.61,262.05 
			206.48,395.46 43.96,516.14 		"/>
		<polygon style="clip-path:url(#SVGID_00000023997998115541272270000017353444381319426748_);fill:#9099AF;" points="
			301.44,622.42 1683.6,622.42 1220.96,528.03 942.49,425.66 839.65,258.49 824.15,241.58 808.6,229.37 800.67,244.87 
			785.17,217.16 775.16,217.16 766.39,238.29 747.3,217.16 726,222.8 715.2,242.99 695.01,236.09 668.24,250.5 659.32,235.01 
			605.79,289.48 543.32,333.62 474.3,436.93 348.45,530.38 		"/>
		<polygon style="clip-path:url(#SVGID_00000023997998115541272270000017353444381319426748_);fill:#AAB7CE;" points="635.1,614.74 
			1671.72,614.74 1324.74,543.95 1115.89,467.17 1038.75,341.78 1027.13,329.11 1015.47,319.95 1009.52,331.57 997.9,310.79 
			990.39,310.79 983.81,326.64 969.49,310.79 953.52,315.02 945.42,330.16 930.28,324.99 910.2,335.8 903.51,324.17 863.36,365.03 
			816.51,398.14 764.75,475.62 670.36,545.71 		"/>
	</g>
</g>
</svg>
