<svg xmlns="http://www.w3.org/2000/svg" xmlns:xlink="http://www.w3.org/1999/xlink" viewBox="0 0 1366 615"><defs><style>.a{fill:none;}.b{clip-path:url(#a);}.c{fill:#5291bf;}.d{fill:#5a5e6b;}.e{fill:#6b717f;}.f{fill:#8f98aa;}</style><clipPath id="a"><rect class="a" x="1" width="1365" height="615"/></clipPath></defs><g class="b"><rect class="c" x="1" width="1365" height="615"/><path class="d" d="M0,304.68s98.48-42,102.82-43.45,49.24-42.68,49.24-42.68l133.23-80.41L295.43,141l9.9-2.89,7.48,2.89,7.24,1.45,8.69-5.79,10.14,1.45,13.43-1.45,8.29,1.45,4.35-4.35,8.68,1.45L378,130.9l8.69,1.44,13-4.34,10.14,4.34,30.41,4.35,30.41,14.48L504,175.79,540.18,199,685,298.89l76.75,49.24,76.76,49.23,221.57,107.17h552.34V612.27H0Z"/><path class="e" d="M262.39,351s83.83-35.75,87.53-37,41.92-36.34,41.92-36.34l113.43-68.45,8.63,2.46,8.42-2.46,6.37,2.46,6.17,1.24,7.39-4.94,8.63,1.24,11.44-1.24,7.06,1.24,3.7-3.7,7.39,1.23,3.7-3.7,7.4,1.24,11.1-3.7,8.63,3.7,25.89,3.69,25.89,12.33,28.35,21L722.26,261,845.55,346,910.89,388l65.34,41.92,188.64,91.23h470.22v91.72H262.39Z"/><path class="f" d="M474.52,394.69s69.9-29.81,73-30.84,35-30.29,35-30.29L677,276.48l7.2,2.06,7-2.06,5.31,2.06,5.14,1,6.17-4.11,7.19,1,9.54-1,5.88,1,3.08-3.08,6.17,1,3.08-3.08,6.17,1,9.25-3.08,7.2,3.08L787,275.46l21.59,10.28,23.64,17.47,25.7,16.44L960.7,390.58l54.48,34.94,54.48,35,157.26,76.06h392V613H474.52Z"/><polygon class="e" points="0 403.15 262.39 350.96 262.39 612.82 0 613 0 403.15"/><polygon class="f" points="0 456.26 198.99 503.25 474.52 394.69 474.52 613 0 613 0 456.26"/></g></svg>